<svg width="149" height="16" viewBox="0 0 149 16" fill="none" xmlns="http://www.w3.org/2000/svg">
<path fill-rule="evenodd" clip-rule="evenodd" d="M105.367 8.76585L106.618 4.83988L107.869 8.76585H105.367ZM107.131 3.22949H106.105H105.566L102.409 12.6927H104.117L104.89 10.2645H108.346L109.12 12.6927H110.827L107.67 3.22949H107.131Z" fill="#396AFF"/>
<path fill-rule="evenodd" clip-rule="evenodd" d="M121.099 3.95117H119.565V5.42185H118.464V6.92061H119.565V12.6269H121.099V6.92061H122.2V5.42185H121.099V3.95117Z" fill="#396AFF"/>
<path fill-rule="evenodd" clip-rule="evenodd" d="M130.872 12.6259H132.406V5.60547H130.872V12.6259Z" fill="#396AFF"/>
<path fill-rule="evenodd" clip-rule="evenodd" d="M116.007 9.59007V9.80052C116.007 10.6786 115.275 11.3931 114.376 11.3931C113.477 11.3931 112.745 10.6786 112.745 9.80052V9.59007L112.753 5.41602H111.219L111.227 9.59007V9.80052C111.227 11.4961 112.64 12.8756 114.376 12.8756C116.112 12.8756 117.525 11.4961 117.525 9.80052V9.59007L117.533 5.41602H115.998L116.007 9.59007Z" fill="#396AFF"/>
<path fill-rule="evenodd" clip-rule="evenodd" d="M144.401 11.0999C143.466 11.0999 142.708 10.2667 142.708 8.82746C142.708 7.45705 143.466 6.55499 144.401 6.55499C145.336 6.55499 146.109 7.45249 146.109 8.82746C146.109 10.3106 145.336 11.0999 144.401 11.0999ZM147.644 10.0954V5.42648H146.109V6.19771C145.562 5.60308 144.82 5.2666 144.008 5.2666C142.347 5.2666 141.001 6.68014 141.001 8.82746C141.001 11.0827 142.347 12.3883 144.008 12.3883C144.82 12.3883 145.562 12.0922 146.109 11.5192V12.2875H146.111V12.702C146.111 13.5712 145.386 14.2785 144.496 14.2785C143.606 14.2785 142.882 13.5712 142.882 12.702H141.331C141.331 14.4063 142.751 15.7929 144.496 15.7929C146.242 15.7929 147.661 14.4063 147.661 12.702V10.0954H147.644Z" fill="#396AFF"/>
<path fill-rule="evenodd" clip-rule="evenodd" d="M131.64 2.90039C131.085 2.90039 130.635 3.33994 130.635 3.88215C130.635 4.42428 131.085 4.86382 131.64 4.86382C132.195 4.86382 132.645 4.42428 132.645 3.88215C132.645 3.33994 132.195 2.90039 131.64 2.90039Z" fill="#396AFF"/>
<path fill-rule="evenodd" clip-rule="evenodd" d="M137.659 5.17773H137.312C136.493 5.17773 135.265 5.75411 135.265 6.85846V5.74483H133.73V12.6059H135.265V8.30968C135.265 7.36458 136.049 6.59839 137.017 6.59839C137.885 6.59839 138.588 7.28536 138.588 8.13276V12.6266H140.286V7.74339C140.286 6.32641 139.11 5.17773 137.659 5.17773Z" fill="#396AFF"/>
<path fill-rule="evenodd" clip-rule="evenodd" d="M127.051 5.17778H126.704C125.959 5.17778 125.005 5.53139 124.747 6.34727V2.71094H123.212V12.5738H124.747V7.76834C124.979 7.08881 125.635 6.59845 126.408 6.59845C127.276 6.59845 127.98 7.28542 127.98 8.13283V12.6267H129.678V7.74345C129.678 6.32646 128.501 5.17778 127.051 5.17778Z" fill="#396AFF"/>
<path fill-rule="evenodd" clip-rule="evenodd" d="M91.9823 14.2169C88.6705 12.5129 86.4122 9.11882 86.4122 5.20908C86.4122 5.11026 86.4147 5.012 86.4176 4.91389L91.9832 1.5995L97.5472 4.91389C97.55 5.012 97.5525 5.11026 97.5525 5.20908C97.5525 9.11882 95.2942 12.5129 91.9823 14.2169ZM98.958 4.15467L91.9832 0L85.0066 4.15467C85.003 4.27774 85 4.40089 85 4.52476C85 9.42577 87.8308 13.6803 91.9823 15.8164C96.1339 13.6803 98.9647 9.42577 98.9647 4.52476C98.9647 4.40089 98.9616 4.27774 98.958 4.15467Z" fill="#396AFF"/>
<path fill-rule="evenodd" clip-rule="evenodd" d="M93.2284 3.56123L91.9935 5.80064L93.4173 8.33589L91.9929 10.5281L90.5685 8.33589L91.9923 5.80064L90.7834 3.54883L87.686 5.54114V5.77672C87.686 8.8284 89.4437 11.4761 92.0286 12.8C94.6135 11.4649 96.3712 8.8172 96.3712 5.77672C96.3712 5.6983 96.3712 5.61972 96.3712 5.54114L93.2284 3.56123Z" fill="#396AFF"/>
<path d="M1.59589 3.004V13H2.74389V8.912H5.66989C7.96589 8.912 9.12789 7.918 9.12789 5.944C9.12789 3.984 7.97989 3.004 5.68389 3.004H1.59589ZM2.74389 3.998H5.61389C6.41189 3.998 6.99989 4.152 7.39189 4.488C7.78389 4.782 7.97989 5.272 7.97989 5.944C7.97989 6.616 7.78389 7.106 7.40589 7.428C7.01389 7.75 6.42589 7.918 5.61389 7.918H2.74389V3.998ZM13.6723 5.566C12.5803 5.566 11.7263 5.93 11.0823 6.686C10.4663 7.4 10.1583 8.296 10.1583 9.388C10.1583 10.466 10.4663 11.362 11.0823 12.062C11.7263 12.818 12.5803 13.196 13.6723 13.196C14.7503 13.196 15.6183 12.818 16.2763 12.062C16.8783 11.362 17.1863 10.466 17.1863 9.388C17.1863 8.296 16.8783 7.4 16.2623 6.686C15.6183 5.93 14.7503 5.566 13.6723 5.566ZM13.6723 6.504C14.4283 6.504 15.0303 6.798 15.4783 7.386C15.8563 7.918 16.0523 8.576 16.0523 9.388C16.0523 10.172 15.8563 10.844 15.4783 11.376C15.0303 11.964 14.4283 12.258 13.6723 12.258C12.9023 12.258 12.3003 11.964 11.8803 11.376C11.4883 10.844 11.3063 10.186 11.3063 9.388C11.3063 8.576 11.4883 7.918 11.8803 7.386C12.3003 6.798 12.9023 6.504 13.6723 6.504ZM17.8434 5.762L20.3074 13H21.3574L23.0654 7.176L24.7454 13H25.8094L28.2734 5.762H27.0414L25.2634 11.628L23.5834 5.762H22.5334L20.8534 11.628L19.0754 5.762H17.8434ZM32.1918 5.566C31.1418 5.566 30.3158 5.944 29.6998 6.7C29.0838 7.414 28.7898 8.31 28.7898 9.374C28.7898 10.55 29.0978 11.474 29.7418 12.174C30.3578 12.846 31.1978 13.196 32.2338 13.196C33.1718 13.196 33.9418 12.916 34.5438 12.384C35.0338 11.936 35.3558 11.376 35.5238 10.676H34.4038C34.2218 11.18 33.9838 11.558 33.6758 11.81C33.3118 12.104 32.8218 12.258 32.2338 12.258C31.5478 12.258 31.0018 12.034 30.6098 11.586C30.2178 11.138 30.0078 10.508 29.9518 9.696H35.6638C35.6358 8.436 35.3558 7.442 34.8238 6.742C34.2358 5.958 33.3538 5.566 32.1918 5.566ZM32.2198 6.504C33.5918 6.504 34.3618 7.274 34.5018 8.828H29.9798C30.0498 8.114 30.2738 7.554 30.6658 7.134C31.0578 6.714 31.5758 6.504 32.2198 6.504ZM40.1534 5.566C39.6494 5.566 39.2154 5.72 38.8374 6.028C38.5294 6.266 38.2774 6.602 38.0814 7.022V5.762H36.9754V13H38.0814V9.164C38.0814 8.492 38.2634 7.918 38.6554 7.442C39.0334 6.938 39.5094 6.7 40.0694 6.7C40.4194 6.7 40.7834 6.742 41.1474 6.854V5.734C40.8814 5.622 40.5454 5.566 40.1534 5.566ZM45.0707 5.566C44.0207 5.566 43.1947 5.944 42.5787 6.7C41.9627 7.414 41.6687 8.31 41.6687 9.374C41.6687 10.55 41.9767 11.474 42.6207 12.174C43.2367 12.846 44.0767 13.196 45.1127 13.196C46.0507 13.196 46.8207 12.916 47.4227 12.384C47.9127 11.936 48.2347 11.376 48.4027 10.676H47.2827C47.1007 11.18 46.8627 11.558 46.5547 11.81C46.1907 12.104 45.7007 12.258 45.1127 12.258C44.4267 12.258 43.8807 12.034 43.4887 11.586C43.0967 11.138 42.8867 10.508 42.8307 9.696H48.5427C48.5147 8.436 48.2347 7.442 47.7027 6.742C47.1147 5.958 46.2327 5.566 45.0707 5.566ZM45.0987 6.504C46.4707 6.504 47.2407 7.274 47.3807 8.828H42.8587C42.9287 8.114 43.1527 7.554 43.5447 7.134C43.9367 6.714 44.4547 6.504 45.0987 6.504ZM55.2023 2.808V7.092C54.6423 6.07 53.8443 5.566 52.8083 5.566C51.7723 5.566 50.9743 5.944 50.3863 6.728C49.8403 7.428 49.5743 8.296 49.5743 9.36C49.5743 10.452 49.8403 11.348 50.3863 12.048C50.9743 12.804 51.8003 13.196 52.8643 13.196C53.9563 13.196 54.7683 12.734 55.2723 11.81V13H56.3223V2.808H55.2023ZM53.0463 6.49C53.6903 6.49 54.2223 6.742 54.6283 7.274C55.0203 7.792 55.2303 8.478 55.2303 9.318V9.458C55.2303 10.27 55.0483 10.928 54.6983 11.432C54.2923 11.992 53.7323 12.272 53.0043 12.272C52.2203 12.272 51.6323 11.978 51.2403 11.418C50.8903 10.914 50.7223 10.228 50.7223 9.36C50.7223 8.492 50.8903 7.82 51.2543 7.33C51.6463 6.77 52.2483 6.49 53.0463 6.49ZM62.7196 2.808V13H63.7696V11.81C64.2596 12.734 65.0576 13.196 66.1776 13.196C67.2276 13.196 68.0536 12.804 68.6556 12.048C69.1876 11.348 69.4676 10.452 69.4676 9.36C69.4676 8.296 69.1876 7.428 68.6556 6.728C68.0676 5.944 67.2556 5.566 66.2336 5.566C65.1976 5.566 64.3996 6.07 63.8396 7.092V2.808H62.7196ZM65.9956 6.49C66.7796 6.49 67.3676 6.77 67.7736 7.33C68.1376 7.82 68.3196 8.492 68.3196 9.36C68.3196 10.228 68.1376 10.914 67.8016 11.418C67.4096 11.978 66.8216 12.272 66.0376 12.272C65.3096 12.272 64.7356 11.992 64.3436 11.432C63.9796 10.928 63.7976 10.27 63.7976 9.458V9.318C63.7976 8.478 63.9936 7.792 64.4136 7.274C64.8056 6.742 65.3376 6.49 65.9956 6.49ZM70.1247 5.762L72.9947 12.832L71.7487 15.772H72.9667L76.9287 5.762H75.6967L73.5547 11.474L71.3427 5.762H70.1247Z" fill="#C9CDD4"/>
</svg>
