<svg width="160" height="160" viewBox="0 0 160 160" fill="none" xmlns="http://www.w3.org/2000/svg">
<rect x="20" y="23.9121" width="118.81" height="118.81" rx="59.4052" fill="#D2DEFF"/>
<mask id="mask0_3750_129422" style="mask-type:alpha" maskUnits="userSpaceOnUse" x="20" y="23" width="120" height="121">
<rect x="20" y="23.667" width="120" height="120" rx="60" fill="white"/>
</mask>
<g mask="url(#mask0_3750_129422)">
<mask id="mask1_3750_129422" style="mask-type:alpha" maskUnits="userSpaceOnUse" x="30" y="-54" width="161" height="161">
<path fill-rule="evenodd" clip-rule="evenodd" d="M30.9219 -53.3691H190.743V106.452H30.9219V-53.3691Z" fill="white"/>
</mask>
<g mask="url(#mask1_3750_129422)">
<path fill-rule="evenodd" clip-rule="evenodd" d="M31.3205 26.5415C31.3205 -17.3011 66.9888 -52.9704 110.832 -52.9704C154.675 -52.9704 190.344 -17.3011 190.344 26.5415C190.344 26.6722 190.331 26.7991 190.325 26.9288C190.131 28.8345 188.516 30.3274 186.558 30.3274C184.47 30.3274 182.772 28.6295 182.772 26.5415C182.772 -13.1261 150.5 -45.3977 110.832 -45.3977C71.1648 -45.3977 38.8932 -13.1261 38.8932 26.5415C38.8932 68.4071 72.9529 102.467 114.818 102.467C144.562 102.467 170.361 85.271 182.81 60.3023C170.09 87.3111 142.611 106.053 110.832 106.053C66.9888 106.053 31.3205 70.3851 31.3205 26.5415ZM182.572 34.3134C178.287 34.3134 174.801 30.8265 174.801 26.5414C174.801 -8.73109 146.105 -37.4265 110.832 -37.4265C75.5608 -37.4265 46.8645 -8.73109 46.8645 26.5414C46.8645 66.209 79.1361 98.4806 118.804 98.4806C146.967 98.4806 171.399 82.2108 183.203 58.578C171.127 84.25 145.016 102.068 114.818 102.068C73.1729 102.068 39.2918 68.187 39.2918 26.5414C39.2918 -12.9062 71.3848 -44.9992 110.832 -44.9992C150.28 -44.9992 182.373 -12.9062 182.373 26.5414C182.373 28.8494 184.25 30.7268 186.558 30.7268C187.949 30.7268 189.18 30.0415 189.942 28.9942C188.912 32.0806 186 34.3134 182.572 34.3134ZM178.587 38.2985C172.104 38.2985 166.83 33.0244 166.83 26.5413C166.83 -4.33519 141.71 -29.4553 110.832 -29.4553C79.9549 -29.4553 54.8358 -4.33519 54.8358 26.5413C54.8358 64.0109 85.3193 94.4953 122.789 94.4953C149.374 94.4953 172.438 79.1478 183.597 56.8499C172.166 81.1869 147.423 98.0819 118.804 98.0819C79.3561 98.0819 47.2631 65.9889 47.2631 26.5413C47.2631 -8.51122 75.7798 -37.028 110.832 -37.028C145.885 -37.028 174.402 -8.51122 174.402 26.5413C174.402 31.0464 178.067 34.7119 182.572 34.7119C185.537 34.7119 188.131 33.1193 189.563 30.7493C187.867 35.1594 183.588 38.2985 178.587 38.2985ZM174.602 42.2846C165.921 42.2846 158.859 35.2224 158.859 26.5413C158.859 0.0598946 137.314 -21.484 110.832 -21.484C84.3509 -21.484 62.8061 0.0598946 62.8061 26.5413C62.8061 61.8138 91.5024 90.5092 126.775 90.5092C151.779 90.5092 173.476 76.0858 183.991 55.1239C173.205 78.1259 149.829 94.0967 122.789 94.0967C85.5392 94.0967 55.2344 63.7918 55.2344 26.5413C55.2344 -4.11613 80.1749 -29.0576 110.832 -29.0576C141.49 -29.0576 166.431 -4.11613 166.431 26.5413C166.431 33.2444 171.884 38.6971 178.587 38.6971C183.111 38.6971 187.063 36.2114 189.156 32.5355C186.793 38.2515 181.16 42.2846 174.602 42.2846ZM170.616 46.2697C159.738 46.2697 150.887 37.4193 150.887 26.5412C150.887 4.45486 132.919 -13.5137 110.832 -13.5137C88.746 -13.5137 70.7774 4.45486 70.7774 26.5412C70.7774 59.6157 97.6856 86.5239 130.76 86.5239C154.185 86.5239 174.513 73.0247 184.383 53.3986C174.242 75.0647 152.234 90.1114 126.775 90.1114C91.7224 90.1114 63.2056 61.5937 63.2056 26.5412C63.2056 0.278828 84.5709 -21.0864 110.832 -21.0864C137.095 -21.0864 158.46 0.278828 158.46 26.5412C158.46 35.4423 165.701 42.6831 174.602 42.6831C180.696 42.6831 186.01 39.2874 188.756 34.2906C185.739 41.3274 178.744 46.2697 170.616 46.2697ZM166.631 50.2561C153.554 50.2561 142.916 39.6177 142.916 26.5415C142.916 8.85116 128.524 -5.54213 110.832 -5.54213C93.1411 -5.54213 78.7487 8.85116 78.7487 26.5415C78.7487 57.418 103.869 82.539 134.746 82.539C156.592 82.539 175.553 69.963 184.778 51.671C175.282 72.0021 154.641 86.1256 130.76 86.1256C97.9056 86.1256 71.176 59.396 71.176 26.5415C71.176 4.67513 88.966 -13.1148 110.832 -13.1148C132.699 -13.1148 150.489 4.67513 150.489 26.5415C150.489 37.6396 159.518 46.6686 170.616 46.6686C178.265 46.6686 184.93 42.3788 188.335 36.08C184.656 44.4179 176.315 50.2561 166.631 50.2561ZM162.644 54.2412C147.371 54.2412 134.946 41.8155 134.946 26.5414C134.946 13.2461 124.128 2.42906 110.832 2.42906C97.5371 2.42906 86.72 13.2461 86.72 26.5414C86.72 55.2208 110.052 78.5527 138.731 78.5527C158.998 78.5527 176.591 66.9009 185.171 49.9448C176.319 68.94 157.047 82.1403 134.746 82.1403C104.089 82.1403 79.1473 57.1988 79.1473 26.5414C79.1473 9.0701 93.361 -5.14363 110.832 -5.14363C128.304 -5.14363 142.517 9.0701 142.517 26.5414C142.517 39.8375 153.334 50.6536 166.631 50.6536C175.859 50.6536 183.889 45.4407 187.941 37.8059C183.616 47.4798 173.908 54.2412 162.644 54.2412ZM158.659 58.2272C141.188 58.2272 126.974 44.0125 126.974 26.5412C126.974 17.6411 119.732 10.4003 110.832 10.4003C101.932 10.4003 94.6913 17.6411 94.6913 26.5412C94.6913 53.0226 116.235 74.5675 142.717 74.5675C161.403 74.5675 177.629 63.8388 185.565 48.2196C177.357 65.8788 159.453 78.154 138.731 78.154C110.272 78.154 87.1186 55.0007 87.1186 26.5412C87.1186 13.4651 97.7561 2.82756 110.832 2.82756C123.908 2.82756 134.547 13.4651 134.547 26.5412C134.547 42.0345 147.151 54.6397 162.644 54.6397C173.453 54.6397 182.85 48.5016 187.547 39.5319C182.577 50.5417 171.502 58.2272 158.659 58.2272ZM154.673 62.2124C135.005 62.2124 119.003 46.2105 119.003 26.5412C119.003 22.0362 115.337 18.3716 110.832 18.3716C106.327 18.3716 102.662 22.0362 102.662 26.5412C102.662 50.8256 122.418 70.5823 146.703 70.5823C163.81 70.5823 178.67 60.7768 185.958 46.4907C178.397 62.8159 161.859 74.1688 142.717 74.1688C116.455 74.1688 95.0899 52.8036 95.0899 26.5412C95.0899 17.8611 102.152 10.7979 110.832 10.7979C119.513 10.7979 126.576 17.8611 126.576 26.5412C126.576 44.2325 140.968 58.6248 158.659 58.6248C171.113 58.6248 181.924 51.4874 187.239 41.0925C181.66 53.5284 169.162 62.2124 154.673 62.2124ZM150.688 66.5964C166.217 66.5964 179.71 57.7142 186.353 44.763C179.437 59.7542 164.266 70.183 146.703 70.183C122.638 70.183 103.06 50.6059 103.06 26.5415C103.06 22.2564 106.547 18.7695 110.832 18.7695C115.118 18.7695 118.604 22.2564 118.604 26.5415C118.604 46.4308 134.785 62.6113 154.673 62.6113C168.639 62.6113 180.777 54.6324 186.767 42.9946C180.505 56.6725 166.688 66.1978 150.688 66.1978C128.822 66.1978 111.032 48.4079 111.032 26.5415H110.633C110.633 48.6279 128.602 66.5964 150.688 66.5964ZM190.718 28.4987C190.722 28.3276 190.721 28.1556 190.725 27.9845C190.728 27.882 190.727 27.7786 190.729 27.677C190.738 27.2991 190.743 26.9212 190.743 26.5414C190.743 -17.5213 154.895 -53.3691 110.832 -53.3691C66.7697 -53.3691 30.9219 -17.5213 30.9219 26.5414C30.9219 70.604 66.7697 106.452 110.832 106.452C154.242 106.452 189.675 71.6607 190.718 28.4987Z" fill="#E4E8EF"/>
</g>
</g>
<path fill-rule="evenodd" clip-rule="evenodd" d="M48 106C48 110.418 51.5817 114 56 114H104C108.418 114 112 110.418 112 106V58C112 53.5817 108.418 50 104 50H56C51.5817 50 48 53.5817 48 58V106Z" fill="white"/>
<mask id="mask2_3750_129422" style="mask-type:alpha" maskUnits="userSpaceOnUse" x="59" y="68" width="11" height="11">
<path fill-rule="evenodd" clip-rule="evenodd" d="M59 73.08C59 75.8855 61.3301 78.16 64.2057 78.16C67.0798 78.16 69.4107 75.8855 69.4107 73.08C69.4107 70.2745 67.0798 68 64.2057 68C61.3301 68 59 70.2745 59 73.08Z" fill="white"/>
</mask>
<g mask="url(#mask2_3750_129422)">
<path fill-rule="evenodd" clip-rule="evenodd" d="M-10.8984 1321.3H1059.89V-773.101H-10.8984V1321.3Z" fill="#1A66FF"/>
<path fill-rule="evenodd" clip-rule="evenodd" d="M55.2822 81.788H73.1281V64.3711H55.2822V81.788Z" fill="#1A66FF"/>
</g>
<mask id="mask3_3750_129422" style="mask-type:alpha" maskUnits="userSpaceOnUse" x="71" y="69" width="14" height="5">
<path fill-rule="evenodd" clip-rule="evenodd" d="M71.2061 69.4512H84.247V73.0796H71.2061V69.4512Z" fill="white"/>
</mask>
<g mask="url(#mask3_3750_129422)">
<path fill-rule="evenodd" clip-rule="evenodd" d="M69.9023 74.8936H85.5523V67.6367H69.9023V74.8936Z" fill="#1A66FF"/>
</g>
<mask id="mask4_3750_129422" style="mask-type:alpha" maskUnits="userSpaceOnUse" x="71" y="74" width="30" height="3">
<path fill-rule="evenodd" clip-rule="evenodd" d="M71.2061 74.5322H100.252V76.3457H71.2061V74.5322Z" fill="white"/>
</mask>
<g mask="url(#mask4_3750_129422)">
<path fill-rule="evenodd" clip-rule="evenodd" d="M68.3013 77.2525H103.156V73.624H68.3013V77.2525Z" fill="#1A66FF"/>
</g>
<path fill-rule="evenodd" clip-rule="evenodd" d="M64.2057 96.3201C67.0798 96.3201 69.4107 94.0457 69.4107 91.2401C69.4107 88.4346 67.0798 86.1602 64.2057 86.1602C61.3308 86.1602 59 88.4346 59 91.2401C59 94.0457 61.3308 96.3201 64.2057 96.3201Z" fill="#F1F1F1"/>
<mask id="mask5_3750_129422" style="mask-type:alpha" maskUnits="userSpaceOnUse" x="71" y="87" width="14" height="5">
<path fill-rule="evenodd" clip-rule="evenodd" d="M71.2061 87.6113H84.247V91.2405H71.2061V87.6113Z" fill="white"/>
</mask>
<g mask="url(#mask5_3750_129422)">
<path fill-rule="evenodd" clip-rule="evenodd" d="M69.9023 93.0548H85.5523V85.7979H69.9023V93.0548Z" fill="#F1F1F1"/>
</g>
<mask id="mask6_3750_129422" style="mask-type:alpha" maskUnits="userSpaceOnUse" x="71" y="92" width="30" height="3">
<path fill-rule="evenodd" clip-rule="evenodd" d="M71.2061 92.6924H100.252V94.5066H71.2061V92.6924Z" fill="white"/>
</mask>
<g mask="url(#mask6_3750_129422)">
<path fill-rule="evenodd" clip-rule="evenodd" d="M68.3013 95.4136H103.156V91.7852H68.3013V95.4136Z" fill="#F1F1F1"/>
</g>
<path fill-rule="evenodd" clip-rule="evenodd" d="M102.05 123.126H118.122C121.739 123.126 124.698 120.167 124.698 116.55V109.263C124.698 105.646 121.739 102.688 118.122 102.688H108.626C105.009 102.688 102.05 105.646 102.05 109.263V123.126Z" fill="#1A66FF"/>
<path fill-rule="evenodd" clip-rule="evenodd" d="M118.079 112.907H111.179V110.481C111.179 109.271 112.164 108.287 113.374 108.287C114.584 108.287 115.569 109.271 115.569 110.481H117.879C117.879 107.997 115.858 105.977 113.374 105.977C110.89 105.977 108.87 107.997 108.87 110.481V112.907H108.669C108.271 112.907 107.945 113.233 107.945 113.63V119.114C107.945 119.511 108.271 119.837 108.669 119.837H118.079C118.477 119.837 118.802 119.511 118.802 119.114V113.63C118.802 113.233 118.477 112.907 118.079 112.907Z" fill="#FEFFFF"/>
<path fill-rule="evenodd" clip-rule="evenodd" d="M51.6885 40.8777H27.2574C23.0941 40.8777 19.6885 37.4721 19.6885 33.3097V19.5689C19.6885 15.4056 23.0941 12 27.2574 12H44.1195C48.282 12 51.6885 15.4056 51.6885 19.5689V40.8777Z" fill="#1A66FF"/>
<path fill-rule="evenodd" clip-rule="evenodd" d="M28.6982 26.9012L31.2616 24.3379L33.8249 27.3277L40.6619 20.9189L42.9 23.1571L33.8249 32.0278L28.6982 26.9012Z" fill="#FEFFFF"/>
</svg>
