<svg width="245" height="166" viewBox="0 0 245 166" fill="none" xmlns="http://www.w3.org/2000/svg">
<g clip-path="url(#clip0_4479_124909)">
<rect x="27" y="24" width="192" height="118" rx="12" fill="#F2F4F6"/>
<path d="M27 36C27 29.3726 32.3726 24 39 24H207C213.627 24 219 29.3726 219 36H27Z" fill="#ABB2BF"/>
<circle cx="37.5" cy="30.5" r="1.5" fill="white"/>
<circle cx="43.5" cy="30.5" r="1.5" fill="white"/>
<circle cx="49.5" cy="30.5" r="1.5" fill="white"/>
<g filter="url(#filter0_d_4479_124909)">
<rect x="37" y="45" width="172" height="86" rx="4" fill="white"/>
</g>
<path d="M67 60H80C82.2091 60 84 61.7909 84 64V75" stroke="#1EB76D" stroke-width="0.5"/>
<path d="M158 83H88C85.7909 83 84 81.2091 84 79V68" stroke="#1EB76D" stroke-width="0.5"/>
<path d="M156 81L158 83L156 85" stroke="#1EB76D" stroke-width="0.5" stroke-linecap="round"/>
<path d="M67 88L158 88" stroke="#FB9926" stroke-width="0.5"/>
<path d="M156 86L158 88L156 90" stroke="#FB9926" stroke-width="0.5" stroke-linecap="round"/>
<path d="M67 115H80C82.2091 115 84 113.209 84 111V103" stroke="#674DD1" stroke-width="0.5"/>
<path d="M158 93H88C85.7909 93 84 94.7909 84 97V106" stroke="#674DD1" stroke-width="0.5"/>
<path d="M156 95L158 93L156 91" stroke="#674DD1" stroke-width="0.5" stroke-linecap="round"/>
<g filter="url(#filter1_d_4479_124909)">
<rect x="99" y="60" width="46" height="56" rx="3" fill="white"/>
</g>
<rect x="105.97" y="99.4102" width="32.0606" height="5.46341" rx="0.5" fill="#215AE5"/>
<rect x="128.487" y="90.333" width="9.4359" height="5.25" rx="0.5" fill="#D5D7DA"/>
<rect x="106.077" y="90.333" width="21.2308" height="5.25" rx="0.5" fill="#EDEEEF"/>
<rect x="105.97" y="83.5898" width="32.0606" height="5.25" rx="0.5" fill="#EDEEEF"/>
<path d="M111.737 69.3196C112.577 69.3196 113.227 69.4963 113.687 69.8496C114.187 70.2163 114.47 70.7896 114.537 71.5696H113.457C113.357 71.0963 113.17 70.7629 112.897 70.5696C112.623 70.3629 112.217 70.2596 111.677 70.2596C111.21 70.2596 110.85 70.3296 110.597 70.4696C110.29 70.6296 110.137 70.8896 110.137 71.2496C110.137 71.5696 110.313 71.8229 110.667 72.0096C110.84 72.1096 111.253 72.2563 111.907 72.4496C112.893 72.7563 113.517 72.9896 113.777 73.1496C114.39 73.5229 114.697 74.0363 114.697 74.6896C114.697 75.3229 114.447 75.8263 113.947 76.1996C113.447 76.5596 112.747 76.7396 111.847 76.7396C110.987 76.7396 110.307 76.5663 109.807 76.2196C109.22 75.7996 108.897 75.1396 108.837 74.2396H109.917C109.997 74.8063 110.197 75.2096 110.517 75.4496C110.81 75.6696 111.253 75.7796 111.847 75.7796C112.373 75.7796 112.803 75.6863 113.137 75.4996C113.457 75.3196 113.617 75.0696 113.617 74.7496C113.617 74.3563 113.39 74.0429 112.937 73.8096C112.77 73.7296 112.297 73.5696 111.517 73.3296C110.623 73.0429 110.077 72.8463 109.877 72.7396C109.33 72.4129 109.057 71.9363 109.057 71.3096C109.057 70.6829 109.32 70.1896 109.847 69.8296C110.347 69.4896 110.977 69.3196 111.737 69.3196ZM117.941 71.2896C118.701 71.2896 119.261 71.4796 119.621 71.8596C119.935 72.1929 120.091 72.6729 120.091 73.2996V76.5996H119.111V75.8696C118.905 76.1363 118.655 76.3429 118.361 76.4896C118.008 76.6563 117.608 76.7396 117.161 76.7396C116.628 76.7396 116.208 76.6029 115.901 76.3296C115.575 76.0629 115.411 75.7129 115.411 75.2796C115.411 74.6929 115.641 74.2463 116.101 73.9396C116.515 73.6463 117.108 73.4896 117.881 73.4696L119.041 73.4396V73.2296C119.041 72.5096 118.651 72.1496 117.871 72.1496C117.538 72.1496 117.271 72.2096 117.071 72.3296C116.831 72.4696 116.681 72.6829 116.621 72.9696L115.571 72.8796C115.685 72.3129 115.961 71.8996 116.401 71.6396C116.768 71.4063 117.281 71.2896 117.941 71.2896ZM119.041 74.2096L117.951 74.2396C116.985 74.2596 116.501 74.5929 116.501 75.2396C116.501 75.4396 116.585 75.6029 116.751 75.7296C116.918 75.8629 117.135 75.9296 117.401 75.9296C117.841 75.9296 118.225 75.7929 118.551 75.5196C118.878 75.2463 119.041 74.9096 119.041 74.5096V74.2096ZM123.635 71.2896C124.395 71.2896 124.955 71.4796 125.315 71.8596C125.628 72.1929 125.785 72.6729 125.785 73.2996V76.5996H124.805V75.8696C124.598 76.1363 124.348 76.3429 124.055 76.4896C123.701 76.6563 123.301 76.7396 122.855 76.7396C122.321 76.7396 121.901 76.6029 121.595 76.3296C121.268 76.0629 121.105 75.7129 121.105 75.2796C121.105 74.6929 121.335 74.2463 121.795 73.9396C122.208 73.6463 122.801 73.4896 123.575 73.4696L124.735 73.4396V73.2296C124.735 72.5096 124.345 72.1496 123.565 72.1496C123.231 72.1496 122.965 72.2096 122.765 72.3296C122.525 72.4696 122.375 72.6829 122.315 72.9696L121.265 72.8796C121.378 72.3129 121.655 71.8996 122.095 71.6396C122.461 71.4063 122.975 71.2896 123.635 71.2896ZM124.735 74.2096L123.645 74.2396C122.678 74.2596 122.195 74.5929 122.195 75.2396C122.195 75.4396 122.278 75.6029 122.445 75.7296C122.611 75.8629 122.828 75.9296 123.095 75.9296C123.535 75.9296 123.918 75.7929 124.245 75.5196C124.571 75.2463 124.735 74.9096 124.735 74.5096V74.2096ZM129.598 69.3196C130.438 69.3196 131.088 69.4963 131.548 69.8496C132.048 70.2163 132.331 70.7896 132.398 71.5696H131.318C131.218 71.0963 131.031 70.7629 130.758 70.5696C130.485 70.3629 130.078 70.2596 129.538 70.2596C129.071 70.2596 128.711 70.3296 128.458 70.4696C128.151 70.6296 127.998 70.8896 127.998 71.2496C127.998 71.5696 128.175 71.8229 128.528 72.0096C128.701 72.1096 129.115 72.2563 129.768 72.4496C130.755 72.7563 131.378 72.9896 131.638 73.1496C132.251 73.5229 132.558 74.0363 132.558 74.6896C132.558 75.3229 132.308 75.8263 131.808 76.1996C131.308 76.5596 130.608 76.7396 129.708 76.7396C128.848 76.7396 128.168 76.5663 127.668 76.2196C127.081 75.7996 126.758 75.1396 126.698 74.2396H127.778C127.858 74.8063 128.058 75.2096 128.378 75.4496C128.671 75.6696 129.115 75.7796 129.708 75.7796C130.235 75.7796 130.665 75.6863 130.998 75.4996C131.318 75.3196 131.478 75.0696 131.478 74.7496C131.478 74.3563 131.251 74.0429 130.798 73.8096C130.631 73.7296 130.158 73.5696 129.378 73.3296C128.485 73.0429 127.938 72.8463 127.738 72.7396C127.191 72.4129 126.918 71.9363 126.918 71.3096C126.918 70.6829 127.181 70.1896 127.708 69.8296C128.208 69.4896 128.838 69.3196 129.598 69.3196Z" fill="black"/>
<rect x="57.25" y="53.25" width="13.5" height="13.5" rx="6.75" fill="#F2F4F6" stroke="#1EB76D" stroke-width="0.5"/>
<circle cx="64.0001" cy="60.0003" r="5.83333" fill="#94B9F5"/>
<g clip-path="url(#clip1_4479_124909)">
<path d="M61.8396 62.7016C61.8396 62.1286 62.0672 61.579 62.4724 61.1739C62.8776 60.7687 63.4271 60.5411 64.0001 60.5411C64.5731 60.5411 65.1226 60.7687 65.5278 61.1739C65.933 61.579 66.1606 62.1286 66.1606 62.7016H61.8396ZM64.0001 60.271C63.1048 60.271 62.3797 59.5459 62.3797 58.6506C62.3797 57.7554 63.1048 57.0303 64.0001 57.0303C64.8953 57.0303 65.6205 57.7554 65.6205 58.6506C65.6205 59.5459 64.8953 60.271 64.0001 60.271Z" fill="white"/>
</g>
<rect x="57.25" y="108.25" width="13.5" height="13.5" rx="6.75" fill="#F2F4F6" stroke="#674DD1" stroke-width="0.5"/>
<circle cx="64.0001" cy="115" r="5.83333" fill="#94B9F5"/>
<g clip-path="url(#clip2_4479_124909)">
<path d="M61.8396 117.702C61.8396 117.129 62.0672 116.579 62.4724 116.174C62.8776 115.769 63.4271 115.541 64.0001 115.541C64.5731 115.541 65.1226 115.769 65.5278 116.174C65.933 116.579 66.1606 117.129 66.1606 117.702H61.8396ZM64.0001 115.271C63.1048 115.271 62.3797 114.546 62.3797 113.651C62.3797 112.755 63.1048 112.03 64.0001 112.03C64.8953 112.03 65.6205 112.755 65.6205 113.651C65.6205 114.546 64.8953 115.271 64.0001 115.271Z" fill="white"/>
</g>
<rect x="57.25" y="81.25" width="13.5" height="13.5" rx="6.75" fill="#F2F4F6" stroke="#FB9926" stroke-width="0.5"/>
<circle cx="64.0001" cy="88.0003" r="5.83333" fill="#94B9F5"/>
<g clip-path="url(#clip3_4479_124909)">
<path d="M61.8396 90.7016C61.8396 90.1286 62.0672 89.579 62.4724 89.1739C62.8776 88.7687 63.4271 88.5411 64.0001 88.5411C64.5731 88.5411 65.1226 88.7687 65.5278 89.1739C65.933 89.579 66.1606 90.1286 66.1606 90.7016H61.8396ZM64.0001 88.271C63.1048 88.271 62.3797 87.5459 62.3797 86.6506C62.3797 85.7554 63.1048 85.0303 64.0001 85.0303C64.8953 85.0303 65.6205 85.7554 65.6205 86.6506C65.6205 87.5459 64.8953 88.271 64.0001 88.271Z" fill="white"/>
</g>
<path d="M187 91.2188C187 93.875 184.841 96 182.114 96H167C164.273 95.7875 162 93.7687 162 91.0062C162 89.2 163.023 87.6062 164.5 86.7562C164.386 86.4375 164.273 86.1187 164.273 85.8C164.273 83.9937 165.75 82.4 167.682 82.4C168.477 82.4 169.159 82.7187 169.727 83.1437C171.091 80.7 173.591 79 176.545 79C180.636 79 183.932 82.2937 183.932 86.3312V86.7562C185.75 87.5 187 89.2 187 91.2188Z" fill="#94B9F5"/>
<path d="M170.239 86.5616L174.247 88.7592L174.247 93.3812L170.407 91.2213C170.357 91.1929 170.315 91.1519 170.285 91.1023C170.256 91.0526 170.239 90.9962 170.239 90.9384L170.239 90.9332V86.5616ZM178.894 86.4364L178.894 90.9332C178.894 90.9919 178.879 91.0494 178.849 91.1C178.819 91.1507 178.777 91.1925 178.726 91.2213L174.937 93.3525L174.937 88.753L178.894 86.4364H178.894ZM174.403 83.7839C174.453 83.7559 174.509 83.7412 174.566 83.7412C174.624 83.7412 174.68 83.7559 174.73 83.7839L178.496 85.9024L174.587 88.1904L170.527 85.9645L174.403 83.7839Z" fill="white"/>
<g clip-path="url(#clip4_4479_124909)">
<path d="M188.5 75.4163V79.083H184.833C184.833 78.1105 185.22 77.1779 185.907 76.4903C186.595 75.8026 187.527 75.4163 188.5 75.4163ZM188.5 74.958C186.981 74.958 185.75 73.7274 185.75 72.208C185.75 70.6886 186.981 69.458 188.5 69.458C190.019 69.458 191.25 70.6886 191.25 72.208C191.25 73.7274 190.019 74.958 188.5 74.958ZM189.689 77.6218C189.631 77.3773 189.631 77.1225 189.689 76.878L189.235 76.6153L189.693 75.8215L190.148 76.0841C190.33 75.9113 190.551 75.7838 190.792 75.712V75.1872H191.708V75.712C191.952 75.7844 192.172 75.9136 192.352 76.0841L192.807 75.8215L193.265 76.6153L192.811 76.878C192.869 77.1224 192.869 77.377 192.811 77.6214L193.265 77.884L192.807 78.6778L192.352 78.4152C192.17 78.5881 191.949 78.7156 191.708 78.7874V79.3122H190.792V78.7874C190.551 78.7156 190.33 78.5881 190.148 78.4152L189.693 78.6778L189.235 77.884L189.689 77.6218ZM191.25 76.7913C191.128 76.7913 191.012 76.8396 190.926 76.9256C190.84 77.0115 190.792 77.1281 190.792 77.2497C190.792 77.3712 190.84 77.4878 190.926 77.5738C191.012 77.6597 191.128 77.708 191.25 77.708C191.371 77.708 191.488 77.6597 191.574 77.5738C191.66 77.4878 191.708 77.3712 191.708 77.2497C191.708 77.1281 191.66 77.0115 191.574 76.9256C191.488 76.8396 191.371 76.7913 191.25 76.7913Z" fill="#215AE5"/>
</g>
<g clip-path="url(#clip5_4479_124909)">
<path d="M195.042 88.4448V91.1663H195.958V88.4448C197.767 88.6703 199.167 90.213 199.167 92.083H191.833C191.833 91.1899 192.159 90.3275 192.75 89.6576C193.341 88.9878 194.155 88.5565 195.042 88.4448ZM195.5 87.958C193.981 87.958 192.75 86.7274 192.75 85.208C192.75 83.6886 193.981 82.458 195.5 82.458C197.019 82.458 198.25 83.6886 198.25 85.208C198.25 86.7274 197.019 87.958 195.5 87.958Z" fill="#215AE5"/>
</g>
<g clip-path="url(#clip6_4479_124909)">
<path d="M191.5 101.416V105.083H187.833C187.833 104.111 188.22 103.178 188.907 102.49C189.595 101.803 190.527 101.416 191.5 101.416ZM191.5 100.958C189.981 100.958 188.75 99.7274 188.75 98.208C188.75 96.6886 189.981 95.458 191.5 95.458C193.019 95.458 194.25 96.6886 194.25 98.208C194.25 99.7274 193.019 100.958 191.5 100.958ZM195.829 104.181L196.519 104.87L195.871 105.518L195.181 104.829C194.797 105.056 194.343 105.134 193.905 105.05C193.467 104.966 193.074 104.725 192.801 104.373C192.527 104.02 192.392 103.579 192.42 103.134C192.449 102.689 192.638 102.269 192.954 101.953C193.269 101.638 193.689 101.448 194.134 101.42C194.58 101.392 195.02 101.527 195.373 101.8C195.726 102.074 195.967 102.466 196.051 102.905C196.135 103.343 196.056 103.797 195.829 104.181ZM194.25 104.166C194.493 104.166 194.726 104.07 194.898 103.898C195.07 103.726 195.167 103.493 195.167 103.25C195.167 103.007 195.07 102.773 194.898 102.601C194.726 102.43 194.493 102.333 194.25 102.333C194.007 102.333 193.774 102.43 193.602 102.601C193.43 102.773 193.333 103.007 193.333 103.25C193.333 103.493 193.43 103.726 193.602 103.898C193.774 104.07 194.007 104.166 194.25 104.166Z" fill="#215AE5"/>
</g>
</g>
<defs>
<filter id="filter0_d_4479_124909" x="17" y="25" width="212" height="126" filterUnits="userSpaceOnUse" color-interpolation-filters="sRGB">
<feFlood flood-opacity="0" result="BackgroundImageFix"/>
<feColorMatrix in="SourceAlpha" type="matrix" values="0 0 0 0 0 0 0 0 0 0 0 0 0 0 0 0 0 0 127 0" result="hardAlpha"/>
<feOffset/>
<feGaussianBlur stdDeviation="10"/>
<feColorMatrix type="matrix" values="0 0 0 0 0.329412 0 0 0 0 0.34902 0 0 0 0 0.407843 0 0 0 0.2 0"/>
<feBlend mode="normal" in2="BackgroundImageFix" result="effect1_dropShadow_4479_124909"/>
<feBlend mode="normal" in="SourceGraphic" in2="effect1_dropShadow_4479_124909" result="shape"/>
</filter>
<filter id="filter1_d_4479_124909" x="89" y="50" width="66" height="76" filterUnits="userSpaceOnUse" color-interpolation-filters="sRGB">
<feFlood flood-opacity="0" result="BackgroundImageFix"/>
<feColorMatrix in="SourceAlpha" type="matrix" values="0 0 0 0 0 0 0 0 0 0 0 0 0 0 0 0 0 0 127 0" result="hardAlpha"/>
<feOffset/>
<feGaussianBlur stdDeviation="5"/>
<feComposite in2="hardAlpha" operator="out"/>
<feColorMatrix type="matrix" values="0 0 0 0 0.329412 0 0 0 0 0.34902 0 0 0 0 0.407843 0 0 0 0.2 0"/>
<feBlend mode="normal" in2="BackgroundImageFix" result="effect1_dropShadow_4479_124909"/>
<feBlend mode="normal" in="SourceGraphic" in2="effect1_dropShadow_4479_124909" result="shape"/>
</filter>
<clipPath id="clip0_4479_124909">
<rect width="245" height="166" fill="white"/>
</clipPath>
<clipPath id="clip1_4479_124909">
<rect width="6.48148" height="6.48148" fill="white" transform="translate(60.7593 56.7598)"/>
</clipPath>
<clipPath id="clip2_4479_124909">
<rect width="6.48148" height="6.48148" fill="white" transform="translate(60.7593 111.76)"/>
</clipPath>
<clipPath id="clip3_4479_124909">
<rect width="6.48148" height="6.48148" fill="white" transform="translate(60.7593 84.7598)"/>
</clipPath>
<clipPath id="clip4_4479_124909">
<rect width="11" height="11" fill="white" transform="translate(183 69)"/>
</clipPath>
<clipPath id="clip5_4479_124909">
<rect width="11" height="11" fill="white" transform="translate(190 82)"/>
</clipPath>
<clipPath id="clip6_4479_124909">
<rect width="11" height="11" fill="white" transform="translate(186 95)"/>
</clipPath>
</defs>
</svg>
